{
	"asset":{
		"generator":"Khronos glTF Blender I/O v4.4.56",
		"version":"2.0"
	},
	"scene":0,
	"scenes":[
		{
			"name":"Scene",
			"nodes":[
				0
			]
		}
	],
	"nodes":[
		{
			"mesh":0,
			"name":"Cube",
			"rotation":[
				0,
				-0.9999991059303284,
				0,
				0.0013437706511467695
			],
			"translation":[
				0,
				-0.02268199995160103,
				0
			]
		}
	],
	"meshes":[
		{
			"name":"Cube.001",
			"primitives":[
				{
					"attributes":{
						"POSITION":0,
						"NORMAL":1,
						"TEXCOORD_0":2
					},
					"indices":3
				}
			]
		}
	],
	"accessors":[
		{
			"bufferView":0,
			"componentType":5126,
			"count":16110,
			"max":[
				7.243867874145508,
				2.4904732704162598,
				6.42312479019165
			],
			"min":[
				-7.271312236785889,
				-4.832955360412598,
				-12.625919342041016
			],
			"type":"VEC3"
		},
		{
			"bufferView":1,
			"componentType":5126,
			"count":16110,
			"type":"VEC3"
		},
		{
			"bufferView":2,
			"componentType":5126,
			"count":16110,
			"type":"VEC2"
		},
		{
			"bufferView":3,
			"componentType":5123,
			"count":26772,
			"type":"SCALAR"
		}
	],
	"bufferViews":[
		{
			"buffer":0,
			"byteLength":193320,
			"byteOffset":0,
			"target":34962
		},
		{
			"buffer":0,
			"byteLength":193320,
			"byteOffset":193320,
			"target":34962
		},
		{
			"buffer":0,
			"byteLength":128880,
			"byteOffset":386640,
			"target":34962
		},
		{
			"buffer":0,
			"byteLength":53544,
			"byteOffset":515520,
			"target":34963
		}
	],
	"buffers":[
		{
			"byteLength":569064,
			"uri":"fishcat.bin"
		}
	]
}
