{
	"asset":{
		"generator":"Khronos glTF Blender I/O v4.3.47",
		"version":"2.0"
	},
	"scene":0,
	"scenes":[
		{
			"name":"Scene",
			"nodes":[
				0,
				1,
				2,
				3,
				4,
				5,
				6,
				7,
				8
			]
		}
	],
	"nodes":[
		{
			"mesh":0,
			"name":"Cylinder.028",
			"rotation":[
				0.7071068286895752,
				0,
				0,
				0.7071068286895752
			],
			"scale":[
				0.42566683888435364,
				0.2568359971046448,
				0.42566683888435364
			],
			"translation":[
				0.09144216775894165,
				0.055686235427856445,
				-1.1046676635742188
			]
		},
		{
			"mesh":1,
			"name":"Cylinder.031",
			"rotation":[
				0,
				0,
				0.7071065902709961,
				0.7071069478988647
			],
			"scale":[
				0.275376558303833,
				0.149643674492836,
				0.275376558303833
			],
			"translation":[
				0.09131544828414917,
				0.5122787952423096,
				-0.6982755661010742
			]
		},
		{
			"mesh":2,
			"name":"Cylinder.029",
			"rotation":[
				0,
				0,
				0.7071065902709961,
				0.7071069478988647
			],
			"scale":[
				0.275376558303833,
				0.149643674492836,
				0.275376558303833
			],
			"translation":[
				0.09131544828414917,
				-0.4052112102508545,
				-0.6982755661010742
			]
		},
		{
			"mesh":3,
			"name":"Cylinder.030",
			"scale":[
				0.275376558303833,
				0.149643674492836,
				0.275376558303833
			],
			"translation":[
				0.5500608086585999,
				0.05353283882141113,
				-0.6982755661010742
			]
		},
		{
			"mesh":4,
			"name":"Cylinder.032",
			"scale":[
				0.275376558303833,
				0.149643674492836,
				0.275376558303833
			],
			"translation":[
				-0.3674299716949463,
				0.05353283882141113,
				-0.6982755661010742
			]
		},
		{
			"mesh":5,
			"name":"Plane.001",
			"scale":[
				1,
				1,
				1.1582903861999512
			],
			"translation":[
				0.03907144069671631,
				1.1635029315948486,
				0.24583816528320312
			]
		},
		{
			"mesh":6,
			"name":"Plane.002",
			"rotation":[
				0,
				0,
				1,
				1.6292068494294654e-07
			],
			"scale":[
				1,
				1,
				1.1582903861999512
			],
			"translation":[
				0.14765870571136475,
				-1.0496432781219482,
				0.24583816528320312
			]
		},
		{
			"mesh":7,
			"name":"Plane.003",
			"rotation":[
				0,
				0,
				0.7071065902709961,
				0.7071069478988647
			],
			"scale":[
				1,
				1,
				1.1582903861999512
			],
			"translation":[
				-1.013208031654358,
				0.002637147903442383,
				0.24583816528320312
			]
		},
		{
			"mesh":8,
			"name":"Plane.004",
			"rotation":[
				0,
				0,
				-0.7071068286895752,
				0.7071068286895752
			],
			"scale":[
				1,
				1,
				1.1582903861999512
			],
			"translation":[
				1.199938178062439,
				0.11122250556945801,
				0.24583816528320312
			]
		}
	],
	"materials":[
		{
			"doubleSided":true,
			"name":"Material.039",
			"normalTexture":{
				"index":0,
				"scale":10
			},
			"pbrMetallicRoughness":{
				"baseColorTexture":{
					"index":1
				},
				"metallicRoughnessTexture":{
					"index":2
				}
			}
		},
		{
			"doubleSided":true,
			"name":"Material.041",
			"normalTexture":{
				"index":3,
				"scale":10
			},
			"pbrMetallicRoughness":{
				"baseColorTexture":{
					"index":4
				},
				"metallicRoughnessTexture":{
					"index":5
				}
			}
		},
		{
			"doubleSided":true,
			"name":"Material.043",
			"normalTexture":{
				"index":6,
				"scale":10
			},
			"pbrMetallicRoughness":{
				"baseColorTexture":{
					"index":7
				},
				"metallicRoughnessTexture":{
					"index":8
				}
			}
		},
		{
			"doubleSided":true,
			"name":"Material.042",
			"pbrMetallicRoughness":{
				"baseColorTexture":{
					"index":9
				},
				"metallicRoughnessTexture":{
					"index":10
				}
			}
		},
		{
			"doubleSided":true,
			"name":"Material.038",
			"normalTexture":{
				"index":11,
				"scale":10
			},
			"pbrMetallicRoughness":{
				"baseColorTexture":{
					"index":12
				},
				"metallicRoughnessTexture":{
					"index":13
				}
			}
		},
		{
			"doubleSided":true,
			"name":"Material.044",
			"normalTexture":{
				"index":14,
				"scale":0
			},
			"pbrMetallicRoughness":{
				"baseColorTexture":{
					"index":15
				},
				"metallicRoughnessTexture":{
					"index":16
				}
			}
		},
		{
			"doubleSided":true,
			"name":"Material.047",
			"normalTexture":{
				"index":17,
				"scale":0
			},
			"pbrMetallicRoughness":{
				"baseColorTexture":{
					"index":18
				},
				"metallicRoughnessTexture":{
					"index":19
				}
			}
		},
		{
			"doubleSided":true,
			"name":"Material.046",
			"normalTexture":{
				"index":20,
				"scale":0
			},
			"pbrMetallicRoughness":{
				"baseColorTexture":{
					"index":21
				},
				"metallicRoughnessTexture":{
					"index":22
				}
			}
		},
		{
			"doubleSided":true,
			"name":"Material.045",
			"normalTexture":{
				"index":23,
				"scale":0
			},
			"pbrMetallicRoughness":{
				"baseColorTexture":{
					"index":24
				},
				"metallicRoughnessTexture":{
					"index":25
				}
			}
		}
	],
	"meshes":[
		{
			"name":"Cylinder.026",
			"primitives":[
				{
					"attributes":{
						"POSITION":0,
						"NORMAL":1,
						"TEXCOORD_0":2
					},
					"indices":3,
					"material":0
				}
			]
		},
		{
			"name":"Cylinder.031",
			"primitives":[
				{
					"attributes":{
						"POSITION":4,
						"NORMAL":5,
						"TEXCOORD_0":6
					},
					"indices":7,
					"material":1
				}
			]
		},
		{
			"name":"Cylinder.033",
			"primitives":[
				{
					"attributes":{
						"POSITION":8,
						"NORMAL":9,
						"TEXCOORD_0":10
					},
					"indices":7,
					"material":2
				}
			]
		},
		{
			"name":"Cylinder.034",
			"primitives":[
				{
					"attributes":{
						"POSITION":11,
						"NORMAL":12,
						"TEXCOORD_0":13
					},
					"indices":7,
					"material":3
				}
			]
		},
		{
			"name":"Cylinder.035",
			"primitives":[
				{
					"attributes":{
						"POSITION":14,
						"NORMAL":15,
						"TEXCOORD_0":16
					},
					"indices":7,
					"material":4
				}
			]
		},
		{
			"name":"Plane.001",
			"primitives":[
				{
					"attributes":{
						"POSITION":17,
						"NORMAL":18
					},
					"indices":19,
					"material":5
				}
			]
		},
		{
			"name":"Plane.002",
			"primitives":[
				{
					"attributes":{
						"POSITION":20,
						"NORMAL":21
					},
					"indices":19,
					"material":6
				}
			]
		},
		{
			"name":"Plane.003",
			"primitives":[
				{
					"attributes":{
						"POSITION":22,
						"NORMAL":23
					},
					"indices":19,
					"material":7
				}
			]
		},
		{
			"name":"Plane.004",
			"primitives":[
				{
					"attributes":{
						"POSITION":24,
						"NORMAL":25
					},
					"indices":19,
					"material":8
				}
			]
		}
	],
	"textures":[
		{
			"sampler":0,
			"source":0
		},
		{
			"sampler":0,
			"source":1
		},
		{
			"sampler":0,
			"source":2
		},
		{
			"sampler":0,
			"source":3
		},
		{
			"sampler":0,
			"source":4
		},
		{
			"sampler":0,
			"source":5
		},
		{
			"sampler":0,
			"source":3
		},
		{
			"sampler":0,
			"source":4
		},
		{
			"sampler":0,
			"source":5
		},
		{
			"sampler":0,
			"source":4
		},
		{
			"sampler":0,
			"source":5
		},
		{
			"sampler":0,
			"source":3
		},
		{
			"sampler":0,
			"source":4
		},
		{
			"sampler":0,
			"source":5
		},
		{
			"sampler":0,
			"source":3
		},
		{
			"sampler":0,
			"source":4
		},
		{
			"sampler":0,
			"source":5
		},
		{
			"sampler":0,
			"source":3
		},
		{
			"sampler":0,
			"source":4
		},
		{
			"sampler":0,
			"source":5
		},
		{
			"sampler":0,
			"source":3
		},
		{
			"sampler":0,
			"source":4
		},
		{
			"sampler":0,
			"source":5
		},
		{
			"sampler":0,
			"source":3
		},
		{
			"sampler":0,
			"source":4
		},
		{
			"sampler":0,
			"source":5
		}
	],
	"images":[
		{
			"mimeType":"image/png",
			"name":"dull-brass_normal-ogl.png",
			"uri":"textures/dull-brass-bl/dull-brass_normal-ogl.png"
		},
		{
			"mimeType":"image/png",
			"name":"dull-brass_albedo.png",
			"uri":"textures/dull-brass-bl/dull-brass_albedo.png"
		},
		{
			"mimeType":"image/png",
			"name":"dull-brass_roughness.png",
			"uri":"textures/dull-brass-bl/dull-brass_roughness.png"
		},
		{
			"mimeType":"image/png",
			"name":"metal-with-leaks_normal-ogl.png",
			"uri":"textures/metal-with-leaks-bl/metal-with-leaks_normal-ogl.png"
		},
		{
			"mimeType":"image/png",
			"name":"metal-with-leaks_albedo.png",
			"uri":"textures/metal-with-leaks-bl/metal-with-leaks_albedo.png"
		},
		{
			"mimeType":"image/png",
			"name":"metal-with-leaks_roughness.png",
			"uri":"textures/metal-with-leaks-bl/metal-with-leaks_roughness.png"
		}
	],
	"accessors":[
		{
			"bufferView":0,
			"componentType":5126,
			"count":4864,
			"max":[
				1.2388863563537598,
				3.075349807739258,
				1.23888099193573
			],
			"min":[
				-1.2388865947723389,
				-2.0215868949890137,
				-1.2388919591903687
			],
			"type":"VEC3"
		},
		{
			"bufferView":1,
			"componentType":5126,
			"count":4864,
			"type":"VEC3"
		},
		{
			"bufferView":2,
			"componentType":5126,
			"count":4864,
			"type":"VEC2"
		},
		{
			"bufferView":3,
			"componentType":5123,
			"count":8100,
			"type":"SCALAR"
		},
		{
			"bufferView":4,
			"componentType":5126,
			"count":1344,
			"max":[
				1,
				1.1346383094787598,
				1
			],
			"min":[
				-1,
				-1.1346383094787598,
				-1
			],
			"type":"VEC3"
		},
		{
			"bufferView":5,
			"componentType":5126,
			"count":1344,
			"type":"VEC3"
		},
		{
			"bufferView":6,
			"componentType":5126,
			"count":1344,
			"type":"VEC2"
		},
		{
			"bufferView":7,
			"componentType":5123,
			"count":2292,
			"type":"SCALAR"
		},
		{
			"bufferView":8,
			"componentType":5126,
			"count":1344,
			"max":[
				1,
				1.1346383094787598,
				1
			],
			"min":[
				-1,
				-1.1346383094787598,
				-1
			],
			"type":"VEC3"
		},
		{
			"bufferView":9,
			"componentType":5126,
			"count":1344,
			"type":"VEC3"
		},
		{
			"bufferView":10,
			"componentType":5126,
			"count":1344,
			"type":"VEC2"
		},
		{
			"bufferView":11,
			"componentType":5126,
			"count":1344,
			"max":[
				1,
				1.1346383094787598,
				1
			],
			"min":[
				-1,
				-1.1346383094787598,
				-1
			],
			"type":"VEC3"
		},
		{
			"bufferView":12,
			"componentType":5126,
			"count":1344,
			"type":"VEC3"
		},
		{
			"bufferView":13,
			"componentType":5126,
			"count":1344,
			"type":"VEC2"
		},
		{
			"bufferView":14,
			"componentType":5126,
			"count":1344,
			"max":[
				1,
				1.1346383094787598,
				1
			],
			"min":[
				-1,
				-1.1346383094787598,
				-1
			],
			"type":"VEC3"
		},
		{
			"bufferView":15,
			"componentType":5126,
			"count":1344,
			"type":"VEC3"
		},
		{
			"bufferView":16,
			"componentType":5126,
			"count":1344,
			"type":"VEC2"
		},
		{
			"bufferView":17,
			"componentType":5126,
			"count":120,
			"max":[
				0.20445632934570312,
				0.15563344955444336,
				0.6804205775260925
			],
			"min":[
				-0.09788727760314941,
				-0.5890121459960938,
				-0.8532159924507141
			],
			"type":"VEC3"
		},
		{
			"bufferView":18,
			"componentType":5126,
			"count":120,
			"type":"VEC3"
		},
		{
			"bufferView":19,
			"componentType":5123,
			"count":228,
			"type":"SCALAR"
		},
		{
			"bufferView":20,
			"componentType":5126,
			"count":120,
			"max":[
				0.20445632934570312,
				0.15563344955444336,
				0.6804205775260925
			],
			"min":[
				-0.09788727760314941,
				-0.5890121459960938,
				-0.8532159924507141
			],
			"type":"VEC3"
		},
		{
			"bufferView":21,
			"componentType":5126,
			"count":120,
			"type":"VEC3"
		},
		{
			"bufferView":22,
			"componentType":5126,
			"count":120,
			"max":[
				0.20445632934570312,
				0.15563344955444336,
				0.6804205775260925
			],
			"min":[
				-0.09788727760314941,
				-0.5890121459960938,
				-0.8532159924507141
			],
			"type":"VEC3"
		},
		{
			"bufferView":23,
			"componentType":5126,
			"count":120,
			"type":"VEC3"
		},
		{
			"bufferView":24,
			"componentType":5126,
			"count":120,
			"max":[
				0.20445632934570312,
				0.15563344955444336,
				0.6804205775260925
			],
			"min":[
				-0.09788727760314941,
				-0.5890121459960938,
				-0.8532159924507141
			],
			"type":"VEC3"
		},
		{
			"bufferView":25,
			"componentType":5126,
			"count":120,
			"type":"VEC3"
		}
	],
	"bufferViews":[
		{
			"buffer":0,
			"byteLength":58368,
			"byteOffset":0,
			"target":34962
		},
		{
			"buffer":0,
			"byteLength":58368,
			"byteOffset":58368,
			"target":34962
		},
		{
			"buffer":0,
			"byteLength":38912,
			"byteOffset":116736,
			"target":34962
		},
		{
			"buffer":0,
			"byteLength":16200,
			"byteOffset":155648,
			"target":34963
		},
		{
			"buffer":0,
			"byteLength":16128,
			"byteOffset":171848,
			"target":34962
		},
		{
			"buffer":0,
			"byteLength":16128,
			"byteOffset":187976,
			"target":34962
		},
		{
			"buffer":0,
			"byteLength":10752,
			"byteOffset":204104,
			"target":34962
		},
		{
			"buffer":0,
			"byteLength":4584,
			"byteOffset":214856,
			"target":34963
		},
		{
			"buffer":0,
			"byteLength":16128,
			"byteOffset":219440,
			"target":34962
		},
		{
			"buffer":0,
			"byteLength":16128,
			"byteOffset":235568,
			"target":34962
		},
		{
			"buffer":0,
			"byteLength":10752,
			"byteOffset":251696,
			"target":34962
		},
		{
			"buffer":0,
			"byteLength":16128,
			"byteOffset":262448,
			"target":34962
		},
		{
			"buffer":0,
			"byteLength":16128,
			"byteOffset":278576,
			"target":34962
		},
		{
			"buffer":0,
			"byteLength":10752,
			"byteOffset":294704,
			"target":34962
		},
		{
			"buffer":0,
			"byteLength":16128,
			"byteOffset":305456,
			"target":34962
		},
		{
			"buffer":0,
			"byteLength":16128,
			"byteOffset":321584,
			"target":34962
		},
		{
			"buffer":0,
			"byteLength":10752,
			"byteOffset":337712,
			"target":34962
		},
		{
			"buffer":0,
			"byteLength":1440,
			"byteOffset":348464,
			"target":34962
		},
		{
			"buffer":0,
			"byteLength":1440,
			"byteOffset":349904,
			"target":34962
		},
		{
			"buffer":0,
			"byteLength":456,
			"byteOffset":351344,
			"target":34963
		},
		{
			"buffer":0,
			"byteLength":1440,
			"byteOffset":351800,
			"target":34962
		},
		{
			"buffer":0,
			"byteLength":1440,
			"byteOffset":353240,
			"target":34962
		},
		{
			"buffer":0,
			"byteLength":1440,
			"byteOffset":354680,
			"target":34962
		},
		{
			"buffer":0,
			"byteLength":1440,
			"byteOffset":356120,
			"target":34962
		},
		{
			"buffer":0,
			"byteLength":1440,
			"byteOffset":357560,
			"target":34962
		},
		{
			"buffer":0,
			"byteLength":1440,
			"byteOffset":359000,
			"target":34962
		}
	],
	"samplers":[
		{
			"magFilter":9729,
			"minFilter":9987
		}
	],
	"buffers":[
		{
			"byteLength":360440,
			"uri":"robot8-2.bin"
		}
	]
}
